# xmcd
#
# Track frame offsets: 
#        150
#        12061
#        21993
#        34457
#        44709
#        58558
#        77327
#        85399
#        96844
#        113788
#        127318
#        141088
#        155208
#        168268
#        181985
#
# Disc length: 2563 seconds
#
# Revision: 1
# Processed by: cddbd v1.5PL3 Copyright (c) Steve Scherf et al.
# Submitted via: ExactAudioCopy v0.90b4
#
DISCID=cc0a010f
DTITLE=Johnny Cash - 30 Essential Hits - Disc 1
DYEAR=2001
DGENRE=Country
TTITLE0=Ring Of Fire
TTITLE1=Ballad Of A Teenage Queen
TTITLE2=I Walk The Line
TTITLE3=The Ways Of A Woman In Love
TTITLE4=Don't Take Your Guns To Town
TTITLE5=The Ballad Of Ira Hayes
TTITLE6=Five Feet High And Rising
TTITLE7=Big River
TTITLE8=A Boy Named Sue (Live)
TTITLE9=Tennessee Flat-Top Box
TTITLE10=It Ain't Me Babe
TTITLE11=Orange Blossom Special
TTITLE12=Man In Black
TTITLE13=If I Were A Carpenter
TTITLE14=There You Go
EXTD=YEAR: 2001 ID3G: 2
EXTT0=
EXTT1=
EXTT2=
EXTT3=
EXTT4=
EXTT5=
EXTT6=
EXTT7=
EXTT8=
EXTT9=
EXTT10=
EXTT11=
EXTT12=
EXTT13=
EXTT14=
PLAYORDER=
